Coordinates
version=1
nRows=8
nColumns=42
inDegrees=yes

Units are S.I. units (second, meters, Newtons, ...)
If the header above contains a line with 'inDegrees', this indicates whether rotational values are in degrees (yes) or radians (no).

endheader
time	pelvis_tilt	pelvis_list	pelvis_rotation	pelvis_tx	pelvis_ty	pelvis_tz	hip_flexion_r	hip_adduction_r	hip_rotation_r	knee_angle_r	knee_adduction_r	knee_angle_r_beta	ankle_angle_r	subtalar_angle_r	mtp_angle_r	hip_flexion_l	hip_adduction_l	hip_rotation_l	knee_angle_l	knee_adduction_l	knee_angle_l_beta	ankle_angle_l	subtalar_angle_l	mtp_angle_l	lumbar_extension	lumbar_bending	lumbar_rotation	arm_flex_r	arm_add_r	arm_rot_r	elbow_flex_r	pro_sup_r	wrist_flex_r	wrist_dev_r	arm_flex_l	arm_add_l	arm_rot_l	elbow_flex_l	pro_sup_l	wrist_flex_l	wrist_dev_l
      4.25000000	     12.34783578	      1.08077481	      3.37485546	      0.20265540	      0.88418738	     -0.13883865	     -8.69700831	      1.87771986	    -18.07861193	     24.24343772	      0.11007569	      0.42312781	     23.67540176	     28.51659462	     -7.50136252	     16.39538637	     -2.10372651	     -7.04427601	     31.52154465	     -2.54035648	      0.55015474	     11.20628395	     16.46486267	     -7.50136252	    -29.81268129	      5.36591250	     -3.49511141	      6.13211465	    -13.99074901	     -0.93271407	     52.00648440	     90.00000001	      0.00000000	      0.00000000	     14.02008923	     -9.59957157	     26.56935323	     51.57505375	     90.00000001	      0.00000000	      0.00000000
      4.26000000	     12.55638147	      1.17656579	      3.20069156	      0.20567806	      0.88425375	     -0.13888366	     -9.19285588	      1.73081674	    -17.65895879	     24.21592535	      0.28171414	      0.42264763	     24.07412296	     28.16990626	     -7.50132169	     16.19020816	     -1.91606043	     -7.20574322	     30.79596379	     -2.42219417	      0.53749096	     11.16365874	     16.93904654	     -7.50132169	    -29.96375068	      5.22423031	     -3.53543454	      6.22950868	    -14.11145130	     -0.52710861	     51.57026148	     90.00000001	      0.00000000	      0.00000000	     13.97935061	     -9.56665501	     26.21558530	     51.47100231	     90.00000001	      0.00000000	      0.00000000
      4.27000000	     12.61974513	      1.09944358	      3.22658885	      0.20871079	      0.88394820	     -0.13912436	     -9.50348161	      1.82550499	    -17.63857561	     24.18765197	      0.28766152	      0.42215417	     24.21056072	     28.17359904	     -7.50131259	     16.34344518	     -1.89520097	     -7.21088559	     30.49433474	     -2.27736070	      0.53222654	     11.19839953	     17.01995999	     -7.50131259	    -29.94391129	      5.34167063	     -3.59407836	      6.17436871	    -14.20278103	     -0.48843547	     51.41108537	     90.00000001	      0.00000000	      0.00000000	     13.96628724	     -9.57457627	     26.19433547	     51.42206475	     90.00000001	      0.00000000	      0.00000000
      4.28000000	     12.62780366	      1.05166851	      3.25113293	      0.21167752	      0.88350831	     -0.13936991	     -9.70070012	      1.87639851	    -17.59995729	     24.27665875	      0.29065939	      0.42370763	     24.20404923	     28.10631889	     -7.50130792	     16.61383207	     -1.85987801	     -7.30928938	     30.37448941	     -2.13349251	      0.53013485	     11.20234687	     16.98531719	     -7.50130792	    -29.89420700	      5.41885238	     -3.64352214	      6.08676511	    -14.29889463	     -0.50068983	     51.35348775	     90.00000001	      0.00000000	      0.00000000	     13.97875696	     -9.58963353	     26.16236138	     51.44284202	     90.00000001	      0.00000000	      0.00000000
      4.29000000	     12.68581883	      0.96881739	      3.27570294	      0.21483845	      0.88317535	     -0.13967735	    -10.03901990	      1.93695741	    -17.70518802	     24.21740164	      0.33875764	      0.42267339	     24.35802844	     28.15719074	     -7.50130817	     16.73191205	     -1.84130201	     -7.39148840	     30.11027844	     -2.00775614	      0.52552350	     11.24356641	     17.01806904	     -7.50130817	    -29.86649742	      5.53602087	     -3.69906241	      6.03561716	    -14.38897202	     -0.48587517	     51.16821543	     90.00000001	      0.00000000	      0.00000000	     13.94217411	     -9.58014050	     26.17806224	     51.38552910	     90.00000001	      0.00000000	      0.00000000
      4.30000000	     12.84320407	      0.93332536	      3.26954461	      0.21794479	      0.88308597	     -0.13995063	    -10.49482005	      1.97615844	    -17.70620306	     24.12112304	      0.35463863	      0.42099302	     24.64724998	     28.32220020	     -7.50130320	     16.61017752	     -1.78608667	     -7.29287525	     29.68381225	     -1.77200399	      0.51808026	     11.23617939	     17.17817486	     -7.50130320	    -29.97054536	      5.61221686	     -3.79630942	      6.17139111	    -14.46648144	     -0.31168948	     50.61974745	     90.00000001	      0.00000000	      0.00000000	     13.94455017	     -9.59492434	     26.12813263	     51.30630520	     90.00000001	      0.00000000	      0.00000000
      4.31000000	     12.84830886	      0.86781551	      3.26634222	      0.22105838	      0.88266450	     -0.14028751	    -10.73958492	      2.00117509	    -17.77702772	     24.12856269	      0.40017931	      0.42112286	     24.71265163	     28.31108960	     -7.50130005	     16.76175448	     -1.76056667	     -7.45089696	     29.51527402	     -1.65392690	      0.51513871	     11.24732929	     17.13141179	     -7.50130005	    -29.92433234	      5.71394768	     -3.84275312	      6.13334554	    -14.57670298	     -0.29518307	     50.46645680	     90.00000001	      0.00000000	      0.00000000	     13.91188321	     -9.57429555	     26.11739908	     51.30346459	     90.00000001	      0.00000000	      0.00000000
      4.32000000	     12.85775654	      0.80656432	      3.26201138	      0.22406767	      0.88220012	     -0.14066410	    -10.96616494	      2.03391469	    -17.78978339	     24.17000208	      0.40624141	      0.42184612	     24.78244448	     28.31164533	     -7.50129689	     16.90073500	     -1.72339391	     -7.59083561	     29.37001611	     -1.53961282	      0.51260348	     11.24672113	     17.08436218	     -7.50129689	    -29.90223162	      5.80945761	     -3.87263949	      6.13676555	    -14.69391704	     -0.27690794	     50.29445731	     90.00000001	      0.00000000	      0.00000000	     13.91304554	     -9.56697310	     26.10032693	     51.30178691	     90.00000001	      0.00000000	      0.00000000
